<svg width="256" height="256" viewBox="0 0 256 256" fill="none" xmlns="http://www.w3.org/2000/svg">
<circle cx="128" cy="128" r="112" fill="white"/>
<path d="M119.591 108.682C119.227 105.015 117.667 102.167 114.909 100.136C112.152 98.1061 108.409 97.0909 103.682 97.0909C100.47 97.0909 97.7576 97.5455 95.5455 98.4545C93.3333 99.3333 91.6364 100.561 90.4545 102.136C89.303 103.712 88.7273 105.5 88.7273 107.5C88.6667 109.167 89.0152 110.621 89.7727 111.864C90.5606 113.106 91.6364 114.182 93 115.091C94.3636 115.97 95.9394 116.742 97.7273 117.409C99.5152 118.045 101.424 118.591 103.455 119.045L111.818 121.045C115.879 121.955 119.606 123.167 123 124.682C126.394 126.197 129.333 128.061 131.818 130.273C134.303 132.485 136.227 135.091 137.591 138.091C138.985 141.091 139.697 144.53 139.727 148.409C139.697 154.106 138.242 159.045 135.364 163.227C132.515 167.379 128.394 170.606 123 172.909C117.636 175.182 111.167 176.318 103.591 176.318C96.0758 176.318 89.5303 175.167 83.9545 172.864C78.4091 170.561 74.0758 167.152 70.9545 162.636C67.8636 158.091 66.2424 152.47 66.0909 145.773H85.1364C85.3485 148.894 86.2424 151.5 87.8182 153.591C89.4242 155.652 91.5606 157.212 94.2273 158.273C96.9242 159.303 99.9697 159.818 103.364 159.818C106.697 159.818 109.591 159.333 112.045 158.364C114.53 157.394 116.455 156.045 117.818 154.318C119.182 152.591 119.864 150.606 119.864 148.364C119.864 146.273 119.242 144.515 118 143.091C116.788 141.667 115 140.455 112.636 139.455C110.303 138.455 107.439 137.545 104.045 136.727L93.9091 134.182C86.0606 132.273 79.8636 129.288 75.3182 125.227C70.7727 121.167 68.5152 115.697 68.5455 108.818C68.5152 103.182 70.0152 98.2576 73.0455 94.0455C76.1061 89.8333 80.303 86.5455 85.6364 84.1818C90.9697 81.8182 97.0303 80.6364 103.818 80.6364C110.727 80.6364 116.758 81.8182 121.909 84.1818C127.091 86.5455 131.121 89.8333 134 94.0455C136.879 98.2576 138.364 103.136 138.455 108.682H119.591ZM193.148 77.5454L163.148 189H146.466L176.466 77.5454H193.148Z" fill="black"/>
</svg>
